{"title":"A Christmas Carol (2009)DvDRiP.x264~PlutO~","uid":5457841,"size":419498361,"categoryP":"video","categoryS":"movies","magnet":"?xt=urn:btih:257b9eb458d5aad48ec90ed369fc837d2c7b20d2&amp;dn=A+Christmas+Carol+%282009%29DvDRiP.x264%7EPlutO%7E&amp;tr=udp%3A%2F%2Ftracker.openbittorrent.com%3A80&amp;tr=udp%3A%2F%2Fopen.demonii.com%3A1337&amp;tr=udp%3A%2F%2Ftracker.coppersurfer.tk%3A6969&amp;tr=udp%3A%2F%2Fexodus.desync.com%3A6969","seeders":0,"leechers":0,"uploader":"pluto999","files":3,"time":1269377682,"description":"Director: Peter Stebbings\n\nWriter:   Peter Stebbings (screenplay)\n\nContact:  View company contact information for Defendor on IMDbPro.\n\nGenre:    Comedy | Drama See more Ã‚Â»\n\nTagline:  An unexpected hero will rise.\n\nPlot:     A comedy centered around three characters: an everyday guy who comes to believe he's a superhero,\nhis psychiatrist, and the teenager he befriends\n\nRating: Rated R for drug use and language throughout, violence and sexual content.\n\nFormat                           : MPEG-4\nCodec ID                         : M4V \nFile size                        : 400 MiB\nDuration                         : 1h 35mn\nOverall bit rate                 : 584 Kbps\n\n\nVideo\nID                               : 1\nFormat                           : AVC\nDuration                         : 1h 35mn\nBit rate mode                    : Variable\nBit rate                         : 525 Kbps\nMaximum bit rate                 : 2 551 Kbps\nWidth                            : 480 pixels\nHeight                           : 256 pixels\nDisplay aspect ratio             : 1.875\nFrame rate mode                  : Constant\nFrame rate                       : 23.976 fps\nResolution                       : 24 bits\nStream size                      : 360 MiB \n\n\n\nAudio\nID                               : 2\nFormat                           : AAC\nCodec ID                         : 40\nDuration                         : 1h 35mn\nBit rate mode                    : Variable\nBit rate                         : 56.0 Kbps\nMaximum bit rate                 : 67.0 Kbps\nChannel(s)                       : 2 channels\nChannel positions                : L R\nSampling rate                    : 48.0 KHz\nResolution                       : 16 bits\nStream size                      : 38.4 MiB\nTitle                            : English\nLanguage                         : English\n\nRipped by plutoÃ‚Â¬Ã‚Â¬\n\nComment seed &amp; enjoy!!","torrent":{"xt":"urn:btih:257b9eb458d5aad48ec90ed369fc837d2c7b20d2","amp;dn":"A+Christmas+Carol+%282009%29DvDRiP.x264%7EPlutO%7E","amp;tr":["udp%3A%2F%2Ftracker.openbittorrent.com%3A80","udp%3A%2F%2Fopen.demonii.com%3A1337","udp%3A%2F%2Ftracker.coppersurfer.tk%3A6969","udp%3A%2F%2Fexodus.desync.com%3A6969"],"infoHash":"257b9eb458d5aad48ec90ed369fc837d2c7b20d2","infoHashBuffer":{"type":"Buffer","data":[37,123,158,180,88,213,170,212,142,201,14,211,105,252,131,125,44,123,32,210]},"announce":[],"urlList":[]}}